<?xml version="1.0" encoding="utf-8"?>
<!-- Generator: Adobe Illustrator 24.0.0, SVG Export Plug-In . SVG Version: 6.00 Build 0)  -->
<svg version="1.1" id="Warstwa_1" xmlns="http://www.w3.org/2000/svg" xmlns:xlink="http://www.w3.org/1999/xlink" x="0px" y="0px"
	 viewBox="0 0 162 43" style="enable-background:new 0 0 162 43;" xml:space="preserve">
<style type="text/css">
	.st0{fill:#0B162D;}
	.st1{display:none;opacity:0.14;}
	.st2{display:inline;fill:#063047;}
	.st3{fill:url(#SVGID_1_);}
	.st4{fill:url(#SVGID_2_);}
	.st5{fill:url(#SVGID_3_);}
	.st6{fill:url(#SVGID_4_);}
	.st7{display:none;}
	.st8{display:inline;fill:#0B162D;}
	.st9{display:none;opacity:0.4;fill:#0B162D;}
	.st10{display:none;fill:#0B162D;}
</style>
<g>
	<g>
		<g>
			<g>
				<path class="st0" d="M2.6,31.1L6.5,9.2h3L6.1,28.4H16l-0.5,2.7H2.6z"/>
				<path class="st0" d="M17.8,23c0.4-2.5,1.5-4.5,3.1-6c1.6-1.5,3.5-2.3,5.7-2.3c2.3,0,3.9,0.7,4.9,2.2c1,1.5,1.3,3.5,0.8,6.1
					c-0.5,2.6-1.5,4.6-3,6.1c-1.6,1.5-3.5,2.2-5.7,2.2c-2.3,0-3.9-0.8-4.9-2.3C17.6,27.6,17.3,25.6,17.8,23z M20.8,23
					c-0.7,4,0.4,6,3.2,6c1.3,0,2.5-0.5,3.4-1.6s1.6-2.5,1.9-4.4c0.7-4-0.4-5.9-3.2-5.9c-1.3,0-2.4,0.5-3.4,1.6
					C21.7,19.7,21.1,21.2,20.8,23z"/>
				<path class="st0" d="M36.6,27.6c-0.2,0.1-0.3,0.3-0.3,0.5c-0.1,0.4,0.4,0.6,1.4,0.6c0.4,0,1.1-0.1,2-0.2
					c0.9-0.2,1.6-0.2,2.1-0.2c1.6,0,2.7,0.4,3.5,1.1c0.7,0.8,1,1.8,0.8,3.1c-0.3,1.5-1.1,2.7-2.6,3.6c-1.5,0.9-3.2,1.4-5.3,1.4
					c-1,0-2.1-0.2-3.2-0.6c-1.1-0.4-1.9-0.8-2.5-1.3l1.9-2.3c1.5,1.1,2.9,1.7,4.3,1.7c1.3,0,2.3-0.2,3.2-0.7c0.8-0.4,1.3-1,1.4-1.7
					c0.2-1.3-0.6-1.9-2.5-1.9c-0.3,0-0.9,0.1-1.8,0.2c-0.9,0.2-1.5,0.2-2,0.2c-2.3,0-3.3-0.9-3-2.6c0.1-0.5,0.4-1,1.1-1.4
					c0.1-0.1,0.2-0.2,0.4-0.2 M37.2,26.2c-2.1-1.1-2.9-2.9-2.4-5.5c0.3-1.7,1.1-3.1,2.5-4.2c1.4-1.1,2.9-1.7,4.6-1.7
					c1.6,0,2.7,0.3,3.5,1l1.7-1.7l1.5,1.7l-1.9,1.3c0.6,0.9,0.7,2.2,0.4,3.7c-0.3,1.6-1,3-2.2,4.1c-1.2,1.1-2.6,1.7-4.3,1.9
					C40.7,26.8,38.8,26.9,37.2,26.2L37.2,26.2 M41.7,17.1c-1,0-1.9,0.3-2.6,1c-0.7,0.7-1.2,1.5-1.4,2.5c-0.2,1.1-0.1,2,0.4,2.8
					c0.5,0.7,1.2,1.1,2.2,1.1c1,0,1.9-0.4,2.5-1.1c0.7-0.7,1.1-1.6,1.3-2.8c0.2-1,0-1.8-0.5-2.5C43.3,17.5,42.6,17.1,41.7,17.1z"/>
			</g>
		</g>
	</g>
	<g class="st1">
		<polygon class="st2" points="70.3,22 71.5,15.3 70.2,15.3 68.4,17.2 67.5,22 63.6,22 60.8,24.8 67,24.8 65.7,32.2 68.5,32.2 
			69.8,24.8 72.5,24.8 73,22 		"/>
		<polygon class="st2" points="78.7,1 69.8,4.6 72,5.5 54.7,22.8 54.4,24.8 57.2,24.8 74.2,7.7 75.1,9.9 		"/>
	</g>
	<g>
		<g>
			<g>
				<g>
					<linearGradient id="SVGID_1_" gradientUnits="userSpaceOnUse" x1="53.5584" y1="24.0605" x2="77.3536" y2="1.1568">
						<stop  offset="0" style="stop-color:#E0505C"/>
						<stop  offset="8.900052e-02" style="stop-color:#E03951"/>
						<stop  offset="0.1985" style="stop-color:#E02346"/>
						<stop  offset="0.3048" style="stop-color:#E01640"/>
						<stop  offset="0.4032" style="stop-color:#E0123E"/>
						<stop  offset="0.8551" style="stop-color:#C8123F"/>
						<stop  offset="1" style="stop-color:#BF123F"/>
					</linearGradient>
					<polygon class="st3" points="76.1,2.1 67.7,5.5 69.7,6.3 54.4,21.6 54.1,23.6 56.9,23.7 71.9,8.5 72.7,10.5 					"/>
					<linearGradient id="SVGID_2_" gradientUnits="userSpaceOnUse" x1="53.9679" y1="23.8603" x2="77.1153" y2="1.2448">
						<stop  offset="0" style="stop-color:#BF123F"/>
						<stop  offset="0.1449" style="stop-color:#C8123F"/>
						<stop  offset="0.5968" style="stop-color:#E0123E"/>
						<stop  offset="0.6952" style="stop-color:#E01640"/>
						<stop  offset="0.8015" style="stop-color:#E02346"/>
						<stop  offset="0.911" style="stop-color:#E03951"/>
						<stop  offset="1" style="stop-color:#E0505C"/>
					</linearGradient>
					<path class="st4" d="M75.9,2.2l-3.2,8l-0.8-1.9L56.7,23.6h-2.5l0.3-1.8L69.9,6.3L68,5.5L75.9,2.2 M76.9,1.3l-1.1,0.5l-8,3.2
						l-1.2,0.5L67.8,6L69,6.5L54.1,21.4L54,21.5l0,0.2l-0.3,1.8l-0.1,0.6h0.6h2.5h0.2l0.2-0.2L71.7,9.2l0.5,1.2l0.5,1.2l0.5-1.2
						l3.2-8L76.9,1.3L76.9,1.3z"/>
				</g>
			</g>
			<g>
				<g>
					<linearGradient id="SVGID_3_" gradientUnits="userSpaceOnUse" x1="60.6343" y1="30.0484" x2="73.7904" y2="16.8488">
						<stop  offset="0" style="stop-color:#E0505C"/>
						<stop  offset="5.577360e-02" style="stop-color:#E03951"/>
						<stop  offset="0.1244" style="stop-color:#E02346"/>
						<stop  offset="0.191" style="stop-color:#E01640"/>
						<stop  offset="0.2527" style="stop-color:#E0123E"/>
						<stop  offset="0.5045" style="stop-color:#DB123E"/>
						<stop  offset="0.8039" style="stop-color:#CD123F"/>
						<stop  offset="1" style="stop-color:#BF123F"/>
					</linearGradient>
					<polygon class="st5" points="68.6,21.4 69.7,15.5 68,15.5 66.6,16.9 65.8,21.5 62.1,21.5 59.4,24.1 65.3,24.1 64.1,31 66.8,31 
						68.1,24.2 70.5,24.1 71,21.5 					"/>
					<linearGradient id="SVGID_4_" gradientUnits="userSpaceOnUse" x1="62.8642" y1="27.6599" x2="73.1337" y2="18.0098">
						<stop  offset="0" style="stop-color:#BF123F"/>
						<stop  offset="0.1961" style="stop-color:#CD123F"/>
						<stop  offset="0.4955" style="stop-color:#DB123E"/>
						<stop  offset="0.7473" style="stop-color:#E0123E"/>
						<stop  offset="0.809" style="stop-color:#E01640"/>
						<stop  offset="0.8756" style="stop-color:#E02346"/>
						<stop  offset="0.9442" style="stop-color:#E03951"/>
						<stop  offset="1" style="stop-color:#E0505C"/>
					</linearGradient>
					<path class="st6" d="M68.3,15.6l1.2,0l-1,5.9h2.4l-0.4,2.5H68l-1.2,6.6h-2.5l1.2-6.6h-5.6l2.5-2.5l3.5,0l0.8-4.3L68.3,15.6
						 M68.1,15.1L68,15.2l-1.6,1.6L66.2,17l0,0.2L65.5,21l-3.1,0l-0.2,0l-0.2,0.2l-2.5,2.5l-0.9,0.9h1.3h5l-1.1,6l-0.1,0.6h0.6h2.5
						h0.4l0.1-0.4l1.1-6.1h2h0.4l0.1-0.4l0.4-2.5l0.1-0.6h-0.6H69l0.9-5.3l0.1-0.6l-0.6,0l-1.2,0L68.1,15.1L68.1,15.1z"/>
				</g>
			</g>
		</g>
	</g>
	<g>
		<g>
			<g>
				<g>
					<g class="st7">
						<polygon class="st8" points="91.3,12.5 90.5,12.5 84.2,25.2 82.8,12.5 80.2,12.5 82.7,30.9 83.5,30.9 89.8,18.4 91.6,14.6 
													"/>
						<polygon class="st8" points="99,12.5 93,25.2 92.3,19.5 91.4,19.5 90.3,21.7 91.9,30.9 92.7,30.9 101.6,12.5 						"/>
					</g>
					<path class="st0" d="M101,21.4c0.5-2.6,1.5-4.8,3.1-6.6c1.6-1.8,3.6-2.7,5.8-2.7c2.5,0,4.3,0.8,5.4,2.4
						c1.1,1.6,1.3,3.9,0.8,6.8c-0.5,3-1.6,5.3-3.3,7c-1.6,1.7-3.7,2.5-6.2,2.5c-2.3,0-3.9-0.9-4.9-2.7
						C100.8,26.5,100.5,24.2,101,21.4z M103.6,21.4c-0.4,2.1-0.3,3.8,0.3,5.2c0.6,1.4,1.6,2.1,3.1,2.1c1.7,0,3.1-0.6,4.2-1.9
						c1.1-1.3,1.9-3.1,2.3-5.4c0.8-4.7-0.5-7-4-7c-1.5,0-2.8,0.6-3.8,1.9C104.7,17.5,104,19.2,103.6,21.4z"/>
					<path class="st0" d="M126.7,30.7l-3.5-7.8c-0.6,0-1.4,0-2.6-0.1l-1.4,7.9h-2.5l3.2-18.2c0.1,0,0.7,0,1.9-0.1
						c1.2-0.1,2.1-0.1,2.6-0.1c4.4,0,6.2,1.7,5.6,5.2c-0.2,1.1-0.7,2.2-1.6,3.1c-0.9,0.9-1.8,1.5-2.8,1.7l3.8,8.4H126.7z M122,14.7
						l-1,5.9c0.6,0.1,1.2,0.1,1.7,0.1c1.5,0,2.6-0.2,3.4-0.7c0.8-0.5,1.3-1.3,1.5-2.6c0.2-1-0.1-1.7-0.7-2.2
						c-0.6-0.4-1.8-0.7-3.3-0.7C123.3,14.6,122.8,14.7,122,14.7z"/>
					<path class="st0" d="M131.7,30.7l3.2-18.2h2.5l-2.8,15.9h8.2l-0.4,2.2H131.7z"/>
					<g>
						<path class="st0" d="M157.4,14.7c-1.2-1.5-3.1-2.3-5.6-2.3c-0.7,0-2.2,0-4.5,0.1l-3.2,18.2h2.5l0.4-2.4l2.4-13.6
							c1-0.1,1.6-0.1,1.9-0.1c3.9,0,5.4,2.2,4.7,6.5c-0.4,2.3-1.2,4.1-2.4,5.4c-1,1-2.1,1.6-3.3,1.9c-0.2,0-0.5,0.1-0.7,0.1l-0.4,0
							l-0.4,2.2c0.1,0,0.4,0,0.4,0c5.3-0.5,8.4-3.7,9.5-9.8C159,18.3,158.6,16.2,157.4,14.7z"/>
					</g>
				</g>
				<polygon class="st0" points="103.2,9.4 100.1,9.4 93,24.1 91.4,12.3 90.6,12.3 84.3,25.1 82.8,12.3 80.2,12.3 82.8,30.9 
					83.5,30.9 89.8,18.3 92,30.9 92.8,30.9 				"/>
				<path class="st9" d="M147.7,30.7h-3.7l3.2-18.2c2.3-0.1,3.9-0.1,4.5-0.1c2.5,0,4.4,0.8,5.6,2.3c1.2,1.5,1.6,3.6,1.1,6.2
					C157.4,27.4,153.8,30.7,147.7,30.7z M149.4,14.7L147,28.3c0.5,0.1,1.2,0.1,2,0.1c1.7,0,3.2-0.7,4.4-2c1.2-1.3,2-3.1,2.4-5.4
					c0.8-4.3-0.8-6.5-4.7-6.5C151,14.6,150.4,14.7,149.4,14.7z"/>
				<path class="st10" d="M147.7,30.7h-3.7l3.2-18.2c2.3-0.1,3.9-0.1,4.5-0.1c2.5,0,4.4,0.8,5.6,2.3c1.2,1.5,1.6,3.6,1.1,6.2
					C157.4,27.4,153.8,30.7,147.7,30.7z M149.4,14.7L147,28.3c0.5,0.1,1.2,0.1,2,0.1c1.7,0,3.2-0.7,4.4-2c1.2-1.3,2-3.1,2.4-5.4
					c0.8-4.3-0.8-6.5-4.7-6.5C151,14.6,150.4,14.6,149.4,14.7z"/>
			</g>
		</g>
	</g>
	<g>
		<g>
			<path class="st0" d="M72.8,39.5l1-1.9h0.3L73,39.7V41h-0.2v-1.3l-1.1-2.1h0.3L72.8,39.5z"/>
			<path class="st0" d="M77.5,39.7c0,0.4-0.1,0.7-0.3,1c-0.2,0.2-0.5,0.3-0.8,0.3c-0.2,0-0.4-0.1-0.6-0.2c-0.2-0.1-0.3-0.3-0.4-0.5
				c-0.1-0.2-0.1-0.4-0.1-0.7c0-0.4,0.1-0.7,0.3-1c0.2-0.2,0.5-0.3,0.8-0.3c0.3,0,0.6,0.1,0.8,0.3C77.4,39,77.5,39.3,77.5,39.7z
				 M75.6,39.7c0,0.3,0.1,0.6,0.2,0.8c0.2,0.2,0.4,0.3,0.6,0.3c0.3,0,0.5-0.1,0.6-0.3c0.2-0.2,0.2-0.5,0.2-0.8
				c0-0.3-0.1-0.6-0.2-0.8c-0.2-0.2-0.4-0.3-0.6-0.3s-0.5,0.1-0.6,0.3C75.6,39.1,75.6,39.4,75.6,39.7z"/>
			<path class="st0" d="M79.4,38.5v1.6c0,0.3,0.1,0.4,0.2,0.6c0.1,0.1,0.3,0.2,0.5,0.2c0.3,0,0.5-0.1,0.7-0.2
				c0.1-0.2,0.2-0.4,0.2-0.7v-1.4h0.2V41H81l0-0.3h0c-0.2,0.3-0.5,0.4-0.9,0.4c-0.6,0-0.9-0.3-0.9-0.9v-1.6H79.4z"/>
			<path class="st0" d="M83.9,38.4c0.1,0,0.2,0,0.3,0l0,0.2c-0.1,0-0.2,0-0.3,0c-0.2,0-0.4,0.1-0.5,0.3c-0.1,0.2-0.2,0.4-0.2,0.7V41
				h-0.2v-2.5h0.2l0,0.5h0c0.1-0.2,0.2-0.3,0.3-0.4C83.6,38.5,83.8,38.4,83.9,38.4z"/>
			<path class="st0" d="M89,41.1c-0.4,0-0.7-0.1-0.9-0.3c-0.2-0.2-0.3-0.5-0.3-0.9c0-0.4,0.1-0.7,0.3-1c0.2-0.2,0.5-0.4,0.8-0.4
				c0.3,0,0.5,0.1,0.7,0.3c0.2,0.2,0.3,0.5,0.3,0.8v0.2H88c0,0.3,0.1,0.6,0.2,0.8c0.2,0.2,0.4,0.3,0.7,0.3c0.1,0,0.3,0,0.4,0
				c0.1,0,0.2-0.1,0.4-0.1v0.2C89.6,41,89.5,41,89.3,41C89.2,41,89.1,41.1,89,41.1z M88.9,38.6c-0.2,0-0.4,0.1-0.6,0.2
				c-0.1,0.2-0.2,0.4-0.3,0.7h1.6c0-0.3-0.1-0.5-0.2-0.7C89.3,38.7,89.1,38.6,88.9,38.6z"/>
			<path class="st0" d="M91.3,39.8v-0.2h1.1v0.2H91.3z"/>
			<path class="st0" d="M95,41.1c-0.4,0-0.6-0.1-0.8-0.3c-0.2-0.2-0.3-0.5-0.3-1c0-0.4,0.1-0.7,0.3-1c0.2-0.2,0.5-0.3,0.9-0.3
				c0.2,0,0.4,0,0.6,0.1l-0.1,0.2c-0.2-0.1-0.4-0.1-0.6-0.1c-0.3,0-0.5,0.1-0.7,0.3c-0.2,0.2-0.2,0.5-0.2,0.8c0,0.3,0.1,0.6,0.2,0.8
				c0.2,0.2,0.4,0.3,0.7,0.3c0.2,0,0.4,0,0.6-0.1v0.2C95.4,41,95.2,41.1,95,41.1z"/>
			<path class="st0" d="M99.3,39.7c0,0.4-0.1,0.7-0.3,1c-0.2,0.2-0.5,0.3-0.8,0.3c-0.2,0-0.4-0.1-0.6-0.2c-0.2-0.1-0.3-0.3-0.4-0.5
				C97.1,40.2,97,40,97,39.7c0-0.4,0.1-0.7,0.3-1c0.2-0.2,0.5-0.3,0.8-0.3c0.3,0,0.6,0.1,0.8,0.3C99.2,39,99.3,39.3,99.3,39.7z
				 M97.3,39.7c0,0.3,0.1,0.6,0.2,0.8c0.2,0.2,0.4,0.3,0.6,0.3c0.3,0,0.5-0.1,0.6-0.3c0.2-0.2,0.2-0.5,0.2-0.8
				c0-0.3-0.1-0.6-0.2-0.8c-0.2-0.2-0.4-0.3-0.6-0.3c-0.3,0-0.5,0.1-0.6,0.3C97.3,39.1,97.3,39.4,97.3,39.7z"/>
			<path class="st0" d="M104.1,41v-1.7c0-0.2,0-0.4-0.1-0.5c-0.1-0.1-0.2-0.2-0.4-0.2c-0.3,0-0.4,0.1-0.6,0.2
				c-0.1,0.1-0.2,0.4-0.2,0.7V41h-0.2v-1.7c0-0.4-0.2-0.6-0.6-0.6c-0.3,0-0.5,0.1-0.6,0.2c-0.1,0.2-0.2,0.4-0.2,0.7V41h-0.2v-2.5
				h0.2l0,0.3h0c0.1-0.1,0.2-0.2,0.3-0.3c0.1-0.1,0.3-0.1,0.4-0.1c0.4,0,0.7,0.1,0.8,0.4h0c0.1-0.1,0.2-0.3,0.3-0.3
				c0.1-0.1,0.3-0.1,0.5-0.1c0.3,0,0.5,0.1,0.6,0.2c0.1,0.1,0.2,0.4,0.2,0.7V41H104.1z"/>
			<path class="st0" d="M109.2,41v-1.7c0-0.2,0-0.4-0.1-0.5c-0.1-0.1-0.2-0.2-0.4-0.2c-0.3,0-0.4,0.1-0.6,0.2
				c-0.1,0.1-0.2,0.4-0.2,0.7V41h-0.2v-1.7c0-0.4-0.2-0.6-0.6-0.6c-0.3,0-0.5,0.1-0.6,0.2c-0.1,0.2-0.2,0.4-0.2,0.7V41h-0.2v-2.5
				h0.2l0,0.3h0c0.1-0.1,0.2-0.2,0.3-0.3c0.1-0.1,0.3-0.1,0.4-0.1c0.4,0,0.7,0.1,0.8,0.4h0c0.1-0.1,0.2-0.3,0.3-0.3
				c0.1-0.1,0.3-0.1,0.5-0.1c0.3,0,0.5,0.1,0.6,0.2c0.1,0.1,0.2,0.4,0.2,0.7V41H109.2z"/>
			<path class="st0" d="M112.2,41.1c-0.4,0-0.7-0.1-0.9-0.3c-0.2-0.2-0.3-0.5-0.3-0.9c0-0.4,0.1-0.7,0.3-1c0.2-0.2,0.5-0.4,0.8-0.4
				c0.3,0,0.5,0.1,0.7,0.3c0.2,0.2,0.3,0.5,0.3,0.8v0.2h-1.8c0,0.3,0.1,0.6,0.2,0.8c0.2,0.2,0.4,0.3,0.7,0.3c0.1,0,0.3,0,0.4,0
				c0.1,0,0.2-0.1,0.4-0.1v0.2c-0.1,0.1-0.3,0.1-0.4,0.1C112.5,41,112.4,41.1,112.2,41.1z M112.2,38.6c-0.2,0-0.4,0.1-0.6,0.2
				c-0.1,0.2-0.2,0.4-0.3,0.7h1.6c0-0.3-0.1-0.5-0.2-0.7C112.6,38.7,112.4,38.6,112.2,38.6z"/>
			<path class="st0" d="M115.8,38.4c0.1,0,0.2,0,0.3,0l0,0.2c-0.1,0-0.2,0-0.3,0c-0.2,0-0.4,0.1-0.5,0.3c-0.1,0.2-0.2,0.4-0.2,0.7
				V41h-0.2v-2.5h0.2l0,0.5h0c0.1-0.2,0.2-0.3,0.3-0.4C115.4,38.5,115.6,38.4,115.8,38.4z"/>
			<path class="st0" d="M118.6,41.1c-0.4,0-0.6-0.1-0.8-0.3c-0.2-0.2-0.3-0.5-0.3-1c0-0.4,0.1-0.7,0.3-1c0.2-0.2,0.5-0.3,0.9-0.3
				c0.2,0,0.4,0,0.6,0.1l-0.1,0.2c-0.2-0.1-0.4-0.1-0.6-0.1c-0.3,0-0.5,0.1-0.7,0.3c-0.2,0.2-0.2,0.5-0.2,0.8c0,0.3,0.1,0.6,0.2,0.8
				c0.2,0.2,0.4,0.3,0.7,0.3c0.2,0,0.4,0,0.6-0.1v0.2C119,41,118.8,41.1,118.6,41.1z"/>
			<path class="st0" d="M121.8,41.1c-0.4,0-0.7-0.1-0.9-0.3c-0.2-0.2-0.3-0.5-0.3-0.9c0-0.4,0.1-0.7,0.3-1c0.2-0.2,0.5-0.4,0.8-0.4
				c0.3,0,0.5,0.1,0.7,0.3c0.2,0.2,0.3,0.5,0.3,0.8v0.2h-1.8c0,0.3,0.1,0.6,0.2,0.8c0.2,0.2,0.4,0.3,0.7,0.3c0.1,0,0.3,0,0.4,0
				c0.1,0,0.2-0.1,0.4-0.1v0.2c-0.1,0.1-0.3,0.1-0.4,0.1C122.1,41,121.9,41.1,121.8,41.1z M121.7,38.6c-0.2,0-0.4,0.1-0.6,0.2
				c-0.1,0.2-0.2,0.4-0.3,0.7h1.6c0-0.3-0.1-0.5-0.2-0.7C122.1,38.7,121.9,38.6,121.7,38.6z"/>
			<path class="st0" d="M126.4,40.2c0-0.2,0.1-0.4,0.2-0.5c0.1-0.2,0.3-0.3,0.6-0.5l-0.2-0.2c-0.1-0.1-0.2-0.2-0.2-0.3
				c0-0.1-0.1-0.2-0.1-0.3c0-0.2,0.1-0.4,0.2-0.5c0.1-0.1,0.3-0.2,0.6-0.2c0.2,0,0.4,0.1,0.6,0.2c0.1,0.1,0.2,0.3,0.2,0.5
				c0,0.2-0.1,0.3-0.2,0.4c-0.1,0.1-0.3,0.3-0.6,0.5l1,1.1c0.1-0.1,0.2-0.2,0.2-0.4c0.1-0.1,0.1-0.3,0.2-0.5h0.2
				c-0.1,0.4-0.3,0.7-0.5,1l0.6,0.6h-0.3l-0.4-0.5c-0.1,0.1-0.3,0.2-0.4,0.3c-0.1,0.1-0.2,0.1-0.4,0.1c-0.1,0-0.3,0.1-0.5,0.1
				c-0.3,0-0.6-0.1-0.8-0.2C126.5,40.7,126.4,40.4,126.4,40.2z M127.4,40.8c0.2,0,0.4,0,0.5-0.1c0.2-0.1,0.3-0.2,0.5-0.3l-1.1-1.1
				c-0.2,0.1-0.4,0.2-0.5,0.3c-0.1,0.1-0.2,0.2-0.2,0.3c0,0.1-0.1,0.2-0.1,0.3c0,0.2,0.1,0.4,0.2,0.5
				C127,40.8,127.2,40.8,127.4,40.8z M127,38.3c0,0.1,0,0.2,0.1,0.3c0.1,0.1,0.2,0.2,0.4,0.4c0.2-0.1,0.4-0.3,0.5-0.4
				c0.1-0.1,0.1-0.2,0.1-0.4c0-0.1,0-0.3-0.1-0.4c-0.1-0.1-0.2-0.1-0.4-0.1c-0.2,0-0.3,0-0.4,0.1C127,38,127,38.1,127,38.3z"/>
			<path class="st0" d="M133.3,41H133v-3.6h0.2V41z"/>
			<path class="st0" d="M137.1,39.7c0,0.4-0.1,0.7-0.3,1c-0.2,0.2-0.5,0.3-0.8,0.3c-0.2,0-0.4-0.1-0.6-0.2c-0.2-0.1-0.3-0.3-0.4-0.5
				c-0.1-0.2-0.1-0.4-0.1-0.7c0-0.4,0.1-0.7,0.3-1c0.2-0.2,0.5-0.3,0.8-0.3c0.3,0,0.6,0.1,0.8,0.3C137,39,137.1,39.3,137.1,39.7z
				 M135.2,39.7c0,0.3,0.1,0.6,0.2,0.8c0.2,0.2,0.4,0.3,0.6,0.3c0.3,0,0.5-0.1,0.6-0.3c0.2-0.2,0.2-0.5,0.2-0.8
				c0-0.3-0.1-0.6-0.2-0.8c-0.2-0.2-0.4-0.3-0.6-0.3c-0.3,0-0.5,0.1-0.6,0.3C135.2,39.1,135.2,39.4,135.2,39.7z"/>
			<path class="st0" d="M140.8,38.5v0.2l-0.5,0c0.1,0.2,0.2,0.4,0.2,0.6c0,0.2-0.1,0.4-0.2,0.6c-0.2,0.2-0.4,0.2-0.7,0.2
				c-0.1,0-0.2,0-0.2,0c-0.1,0-0.2,0.1-0.2,0.2c0,0.1-0.1,0.1-0.1,0.2c0,0.1,0,0.1,0.1,0.2c0.1,0,0.2,0.1,0.3,0.1h0.4
				c0.3,0,0.5,0.1,0.6,0.2c0.1,0.1,0.2,0.3,0.2,0.5c0,0.3-0.1,0.5-0.3,0.6c-0.2,0.1-0.5,0.2-0.9,0.2c-0.3,0-0.6-0.1-0.7-0.2
				c-0.2-0.1-0.3-0.3-0.3-0.5c0-0.2,0.1-0.3,0.2-0.4c0.1-0.1,0.3-0.2,0.4-0.2c-0.1,0-0.1-0.1-0.2-0.1c0-0.1-0.1-0.1-0.1-0.2
				c0-0.2,0.1-0.3,0.3-0.4c-0.1-0.1-0.3-0.2-0.3-0.3c-0.1-0.1-0.1-0.3-0.1-0.4c0-0.3,0.1-0.5,0.2-0.6c0.2-0.2,0.4-0.2,0.6-0.2
				c0.2,0,0.3,0,0.4,0H140.8z M138.7,41.4c0,0.3,0.3,0.5,0.8,0.5c0.7,0,1-0.2,1-0.6c0-0.2-0.1-0.3-0.2-0.3c-0.1-0.1-0.3-0.1-0.5-0.1
				h-0.4C138.9,40.9,138.7,41.1,138.7,41.4z M138.9,39.3c0,0.2,0.1,0.3,0.2,0.5c0.1,0.1,0.3,0.2,0.5,0.2c0.2,0,0.4-0.1,0.5-0.2
				c0.1-0.1,0.2-0.3,0.2-0.5c0-0.2-0.1-0.4-0.2-0.5c-0.1-0.1-0.3-0.2-0.5-0.2c-0.2,0-0.4,0.1-0.5,0.2
				C139,38.9,138.9,39.1,138.9,39.3z"/>
			<path class="st0" d="M142.2,37.8c0-0.1,0-0.2,0.1-0.2c0,0,0.1,0,0.1,0.1c0,0,0,0.1,0,0.2c0,0.1,0,0.1,0,0.2c0,0-0.1,0.1-0.1,0.1
				C142.2,38,142.2,37.9,142.2,37.8z M142.5,41h-0.2v-2.5h0.2V41z"/>
			<path class="st0" d="M145.8,40.4c0,0.2-0.1,0.4-0.3,0.5c-0.2,0.1-0.4,0.2-0.7,0.2c-0.3,0-0.6-0.1-0.8-0.2v-0.2
				c0.3,0.1,0.5,0.2,0.8,0.2c0.2,0,0.4,0,0.6-0.1c0.1-0.1,0.2-0.2,0.2-0.3c0-0.1-0.1-0.2-0.2-0.3c-0.1-0.1-0.3-0.2-0.5-0.3
				c-0.3-0.1-0.4-0.2-0.5-0.2c-0.1-0.1-0.2-0.1-0.2-0.2c-0.1-0.1-0.1-0.2-0.1-0.3c0-0.2,0.1-0.3,0.2-0.4c0.2-0.1,0.4-0.2,0.7-0.2
				c0.3,0,0.5,0.1,0.8,0.2l-0.1,0.2c-0.2-0.1-0.5-0.2-0.7-0.2c-0.2,0-0.4,0-0.5,0.1c-0.1,0.1-0.2,0.2-0.2,0.3c0,0.1,0,0.2,0.1,0.3
				c0.1,0.1,0.3,0.2,0.5,0.3c0.2,0.1,0.4,0.2,0.5,0.2c0.1,0.1,0.2,0.1,0.2,0.2C145.8,40.1,145.8,40.2,145.8,40.4z"/>
			<path class="st0" d="M148.1,40.9c0.1,0,0.3,0,0.4,0V41c-0.1,0-0.2,0.1-0.4,0.1c-0.2,0-0.4-0.1-0.5-0.2c-0.1-0.1-0.2-0.3-0.2-0.6
				v-1.6H147v-0.1l0.4-0.1l0.1-0.6h0.1v0.6h0.7v0.2h-0.7v1.6c0,0.2,0,0.3,0.1,0.4C147.8,40.8,147.9,40.9,148.1,40.9z"/>
			<path class="st0" d="M149.9,37.8c0-0.1,0-0.2,0.1-0.2c0,0,0.1,0,0.1,0.1c0,0,0,0.1,0,0.2c0,0.1,0,0.1,0,0.2c0,0-0.1,0.1-0.1,0.1
				C150,38,149.9,37.9,149.9,37.8z M150.2,41H150v-2.5h0.2V41z"/>
			<path class="st0" d="M153,41.1c-0.4,0-0.6-0.1-0.8-0.3c-0.2-0.2-0.3-0.5-0.3-1c0-0.4,0.1-0.7,0.3-1c0.2-0.2,0.5-0.3,0.9-0.3
				c0.2,0,0.4,0,0.6,0.1l-0.1,0.2c-0.2-0.1-0.4-0.1-0.6-0.1c-0.3,0-0.5,0.1-0.7,0.3c-0.2,0.2-0.2,0.5-0.2,0.8c0,0.3,0.1,0.6,0.2,0.8
				c0.2,0.2,0.4,0.3,0.7,0.3c0.2,0,0.4,0,0.6-0.1v0.2C153.5,41,153.2,41.1,153,41.1z"/>
			<path class="st0" d="M156.8,40.4c0,0.2-0.1,0.4-0.3,0.5c-0.2,0.1-0.4,0.2-0.7,0.2c-0.3,0-0.6-0.1-0.8-0.2v-0.2
				c0.3,0.1,0.5,0.2,0.8,0.2c0.2,0,0.4,0,0.6-0.1c0.1-0.1,0.2-0.2,0.2-0.3c0-0.1-0.1-0.2-0.2-0.3c-0.1-0.1-0.3-0.2-0.5-0.3
				c-0.3-0.1-0.4-0.2-0.5-0.2c-0.1-0.1-0.2-0.1-0.2-0.2c-0.1-0.1-0.1-0.2-0.1-0.3c0-0.2,0.1-0.3,0.2-0.4s0.4-0.2,0.7-0.2
				c0.3,0,0.5,0.1,0.8,0.2l-0.1,0.2c-0.2-0.1-0.5-0.2-0.7-0.2c-0.2,0-0.4,0-0.5,0.1c-0.1,0.1-0.2,0.2-0.2,0.3c0,0.1,0,0.2,0.1,0.3
				c0.1,0.1,0.3,0.2,0.5,0.3c0.2,0.1,0.4,0.2,0.5,0.2c0.1,0.1,0.2,0.1,0.2,0.2C156.7,40.1,156.8,40.2,156.8,40.4z"/>
		</g>
	</g>
</g>
</svg>
